<?xml version="1.0" encoding="UTF-8"?>
<svg version="1.1" viewBox="0 0 800 800" width="800" height="800" xmlns="http://www.w3.org/2000/svg">
<path transform="translate(380)" d="m0 0h40l25 2 32 5 30 7 36 12 24 10 28 14 20 12 16 11 16 12 11 9 10 9 8 7 20 20 7 8 14 17 13 18 11 17 12 21 13 26 11 28 9 28 7 30 5 32 2 25v40l-2 25-5 32-7 30-12 36-10 24-14 28-12 20-11 16-12 16-9 11-9 10-7 8-20 20-8 7-17 14-18 13-17 11-21 12-26 13-28 11-28 9-30 7-32 5-25 2h-40l-25-2-32-5-30-7-36-12-24-10-28-14-20-12-16-11-16-12-11-9-10-9-8-7-20-20-7-8-14-17-13-18-11-17-12-21-13-26-11-28-9-28-7-30-5-32-2-25v-40l2-25 5-32 7-30 12-36 10-24 14-28 12-20 11-16 12-16 9-11 9-10 7-8 20-20 8-7 17-14 18-13 17-11 21-12 26-13 28-11 28-9 30-7 32-5z" fill="#141414"/>
<path transform="translate(333,418)" d="m0 0 5 5 8 13 4 5 2 5 1 4 4 2 1 7 2 2-5 5h-3l1 3-5-2 1 4-3-1-9-14-3-7v-4h-2v18l2 1 3 19 3 3 1 7v4l3 1 2 7 1 4 3 6 9 7 7 2 8 8 11 7 6 5 2-4 2-3h2l2-5 7-9 6-5 1-4 4-3 1-7 6-8 4-3 1-4 9-10 3-3 13-18 2-3h2l2-5 5-5 6-10 4-2 3 5 8 13 10 13 12 13 11 10 10 7 22 13 7 4 51 17 10 5 10 9 8 7 13 13 9 14 8 15 9 27 4 34 3 13 1 8v9l-14 14-8 7-17 14-18 13-17 11-21 12-26 13-28 11-28 9-30 7-32 5-25 2h-40l-25-2-32-5-30-7-36-12-24-10-28-14-20-12-16-11-16-12-11-9-10-9-8-7-1-4 3-29 9-41 5-22 8-19 9-16 10-13 12-12 18-13 16-7 15-5 29-2 5 1 2-4 24-12 13-8 9-9 12-18 8-15 2-3z" fill="#CDCDCD"/>
<path transform="translate(438,160)" d="m0 0 21 3 9 6 7 6 4 6 4 11 3 9 3 27 3 10 4 22 4 24 1 13v30l-5 11-7 9h-2l-1 4-6 3-1 3-3 2-2 5h-2l-1 8-4 9-5 8-3 2-1 3-3-1 1-5-1-4 1-3v-7l-4-14-7-6-6-2-3-3-3-1-5-6v-4l-7 2v-2l-4-1-3-2v-3l7 1 5 1 3-2 2-5-1-6-6-5h-16l-2 4-4-1-3-2h-7l-4 4-4 9-2-1 1-14 3-8-5 5-5 16-1 5 8-1 8 1 4-4 5-1 7 1-4 3-9 3-5 5-5 2-1 5-4 3h-11l-3 2-5 17-2 4-1 10-2 3-6-2-3-3-1-5 1-5-1-6h-2l-5-6-5 1-3-1-3-7-9-7-3-5-5-4-2-36 1-26 3-22 4-11 1-12v-22l4-11 8-12 3-1 1-3 11-7 5-2h11l4 1 15-3 24-2 6-2v-2l3-2z" fill="#CECECE"/>
<path transform="translate(432,230)" d="m0 0h11l5 1 2 2v-2h20l7 3 8 6 5 9 1 6-1 4-4-3v-2l-4-2v-3l-5-1v-2l-10 5h-12l-5 5h8l8 1 3-3 5 2 8 7v5l-2 2-5 1-8-7-5-4-5-2h-8l-1 2 16 3 1 3 5 2 5 4 1 4-9 2-2 5-6 3-5 1h-10l-8-2-5-5 1-5-6-1-8-18-3-2v-2l-6-1-10 6-4 2-2 5-3 4-1 7-1 4-6 7-7 2-12 2h-9l-3-3 1-5v-4h-10l-6 2-1-3 2-7 5-5 9-6 1-2-5-1-1-3-9 2-3 2h-8l-2 1 2-8h4l1-4 6-5 3-4 12-4h9l9-1 17 2 10 6 7 3 2 1v2h2v-2l7-1 2-7 4-4 10-1z" fill="#141414"/>
<path transform="translate(484,504)" d="m0 0h8l15 4 15 5 8 18 2 5-5 2-1 1-1 8-1 5 5 16 3 6v2h2l1 4 2 1 2 11-3 2-3-4-12-35-1-7h-9l-12-3h-7l-2 4-15 1-3-3v-2l-10 1-11 3-5 10-8 7-9 2-7-1-1-3h3l-1-3 7-11 7-6h2l1-4 5-8 15-5 9-5 8-6 5-8z" fill="#141414"/>
<path transform="translate(332,497)" d="m0 0h4l6 11 7 9 5 4 10 5 9 10 1 3h-8l1 10 1 5 6 12 2 5 2 3-5-2-5-3v-2l-4-2-4-3-2-8h-2l-5-10-1-1h-6l-5 5h-2v10l-3-1-2-10-9-1-2 4-2 1h-12l-8-1-1 5-2 3v-3l-3-1-4-7 1-6 7-16 4-8 23-16z" fill="#141414"/>
<path transform="translate(251,641)" d="m0 0 2 3v25l-1 8v32l4 2 2 13v13l-2 10 1 7v8l1 1h7l2-3h2l3 6 2-2 3-17 1-2 3 1 2 6 2 12 1 19-9-2-23-8-10-4 1-9 2-13v-34l1-9 2-60z" fill="#151515"/>
<path transform="translate(556,641)" d="m0 0h1l1 6 1 37-1 7 6-5-1 7-2 5 3-4h2v10l-2 9-1 20-3 18-1 16-8 4-5 2h-4l1-8 5-24 6-17 2-9v-27l-1-8v-31z" fill="#141414"/>
<path transform="translate(418,369)" d="m0 0h3l1 4h9l4 3v2l4 2 3 4v9h-10l-1-3h-2v-3l-4-1-1-1-18-1h-14l-4 1-3 4-2 6-8-1-5-5 1-4 8-7 4-3 5-1 1-4h19z" fill="#CECECE"/>
<path transform="translate(299,319)" d="m0 0h1v13l2 7 6 2 3 13 1 13-5-2-5-6-5-10-2-16v-8h2l1-5z" fill="#CECECE"/>
<path transform="translate(292,493)" d="m0 0h2l-2 6-9 17-3 5-9 13-5-1 1-13 2-3h4l2-5 8-2-1-5 2-7 5-4z" fill="#141414"/>
<path transform="translate(293,522)" d="m0 0 1 3-12 26-4 2-4-6-2-6 4-7z" fill="#141414"/>
<path transform="translate(553,588)" d="m0 0 2 2 1 6h2l6 18 3 15v32h-2l-2-14-2-23-6-23-2-8z" fill="#141414"/>
<path transform="translate(470,473)" d="m0 0h1l-1 9-4 18 1 3-5 4-4 7-5 3-2-1 11-25 7-17z" fill="#141414"/>
<path transform="translate(469,254)" d="m0 0 5 2 8 7v5l-2 2-5 1-8-7-5-4-3-1v-2h7z" fill="#141414"/>
<path transform="translate(507,318)" d="m0 0h2l1 3v21l-4 15-2 4h-2l1-15 1-7 1-13 1-7z" fill="#CECECE"/>
<path transform="translate(578,636)" d="m0 0 2 1-1 15-2 12-6 7-1 6-4 8-2 1 1-6 3-6 6-21 3-8z" fill="#141414"/>
<path transform="translate(251,641)" d="m0 0 2 3v25l-1 8h-3l1-33z" fill="#141414"/>
<path transform="translate(380,748)" d="m0 0 2 3v39h-1l-2-14v-23z" fill="#141414"/>
<path transform="translate(550,537)" d="m0 0 4 8v3l4 1v4h-2v4l2-3 1 4-1 3 1 4h-2l-4-8-3-12z" fill="#141414"/>
<path transform="translate(390,602)" d="m0 0 1 3-4 17-3 25h-1v-13l2-18 3-10z" fill="#141414"/>
<path transform="translate(234,622)" d="m0 0 2 3 2 16 2 14v5l-2-4-3-15-2-15z" fill="#141414"/>
<path transform="translate(394,565)" d="m0 0 4 2 4 6 2 1-1 6-2 1-4-9v-2h-2z" fill="#141414"/>
<path transform="translate(476,451)" d="m0 0 2 3-1 6-3 7h-1l1-8 1-7z" fill="#141414"/>
<path transform="translate(247,588)" d="m0 0h1v15l-2 4-1-1 1-13z" fill="#141414"/>
<path transform="translate(400,559)" d="m0 0 4 2 3 7-1 6h-1l-2-9z" fill="#141414"/>
<path transform="translate(350,263)" d="m0 0h3l-1 3-9 6-2-1 5-5z" fill="#CECECE"/>
</svg>
